HIERARCHY
ROOT hip
{
  OFFSET 0 0 0
  CHANNELS 6 Xposition Yposition Zposition Zrotation Yrotation Xrotation
  JOINT abdomen
  {
    OFFSET 0 20.6881 -0.73152
    CHANNELS 3 Zrotation Xrotation Yrotation
    JOINT chest
    {
      OFFSET 0 11.7043 -0.48768
      CHANNELS 3 Zrotation Xrotation Yrotation
      JOINT neck
      {
        OFFSET 0 22.1894 -2.19456
        CHANNELS 3 Zrotation Xrotation Yrotation
        JOINT head
        {
          OFFSET -0.24384 7.07133 1.2192
          CHANNELS 3 Zrotation Xrotation Yrotation
          JOINT leftEye
          {
            OFFSET 4.14528 8.04674 8.04672
            CHANNELS 3 Zrotation Xrotation Yrotation
            End Site
            {
              OFFSET 1 0 0
            }
          }
          JOINT rightEye
          {
            OFFSET -3.6576 8.04674 8.04672
            CHANNELS 3 Zrotation Xrotation Yrotation
            End Site
            {
              OFFSET 1 0 0
            }
          }
        }
      }
      JOINT rCollar
      {
        OFFSET -2.68224 19.2634 -4.8768
        CHANNELS 3 Zrotation Xrotation Yrotation
        JOINT rShldr
        {
          OFFSET -8.77824 -1.95073 1.46304
          CHANNELS 3 Zrotation Xrotation Yrotation
          JOINT rForeArm
          {
            OFFSET -28.1742 -1.7115 0.48768
            CHANNELS 3 Zrotation Xrotation Yrotation
            JOINT rHand
            {
              OFFSET -22.5879 0.773209 7.07136
              CHANNELS 3 Zrotation Xrotation Yrotation
              JOINT rThumb1
              {
                OFFSET -1.2192 -0.487915 3.41376
                CHANNELS 3 Zrotation Xrotation Yrotation
                JOINT rThumb2
                {
                  OFFSET -3.37035 -0.52449 3.41376
                  CHANNELS 3 Zrotation Xrotation Yrotation
                  End Site
                  {
                    OFFSET -1.78271 -1.18214 1.43049
                  }
                }
              }
              JOINT rIndex1
              {
                OFFSET -7.75947 0.938293 5.60832
                CHANNELS 3 Zrotation Xrotation Yrotation
                JOINT rIndex2
                {
                  OFFSET -2.54057 -0.884171 1.56538
                  CHANNELS 3 Zrotation Xrotation Yrotation
                  End Site
                  {
                    OFFSET -1.62519 -0.234802 1.16502
                  }
                }
              }
              JOINT rMid1
              {
                OFFSET -8.24714 1.18213 3.41376
                CHANNELS 3 Zrotation Xrotation Yrotation
                JOINT rMid2
                {
                  OFFSET -3.10165 -0.590103 1.0647
                  CHANNELS 3 Zrotation Xrotation Yrotation
                  End Site
                  {
                    OFFSET -2.48547 -0.328903 0.83742
                  }
                }
              }
              JOINT rRing1
              {
                OFFSET -8.82822 0.546677 1.51678
                CHANNELS 3 Zrotation Xrotation Yrotation
                JOINT rRing2
                {
                  OFFSET -2.60934 -0.819778 -0.0198488
                  CHANNELS 3 Zrotation Xrotation Yrotation
                  End Site
                  {
                    OFFSET -2.33842 -0.294052 0.168128
                  }
                }
              }
              JOINT rPinky1
              {
                OFFSET -8.27202 -0.0477905 -0.4584
                CHANNELS 3 Zrotation Xrotation Yrotation
                JOINT rPinky2
                {
                  OFFSET -1.82734 -0.647385 -0.700984
                  CHANNELS 3 Zrotation Xrotation Yrotation
                  End Site
                  {
                    OFFSET -1.69225 -0.51767 -0.607171
                  }
                }
              }
            }
          }
        }
      }
      JOINT lCollar
      {
        OFFSET 2.68224 19.2634 -4.8768
        CHANNELS 3 Zrotation Xrotation Yrotation
        JOINT lShldr
        {
          OFFSET 8.77824 -1.95073 1.46304
          CHANNELS 3 Zrotation Xrotation Yrotation
          JOINT lForeArm
          {
            OFFSET 28.1742 -1.7115 0.48768
            CHANNELS 3 Zrotation Xrotation Yrotation
            JOINT lHand
            {
              OFFSET 22.5879 0.773209 7.07136
              CHANNELS 3 Zrotation Xrotation Yrotation
              JOINT lThumb1
              {
                OFFSET 1.2192 -0.487915 3.41376
                CHANNELS 3 Zrotation Xrotation Yrotation
                JOINT lThumb2
                {
                  OFFSET 3.37035 -0.52449 3.41376
                  CHANNELS 3 Zrotation Xrotation Yrotation
                  End Site
                  {
                    OFFSET 1.78271 -1.18214 1.43049
                  }
                }
              }
              JOINT lIndex1
              {
                OFFSET 7.75947 0.938293 5.60832
                CHANNELS 3 Zrotation Xrotation Yrotation
                JOINT lIndex2
                {
                  OFFSET 2.54057 -0.884171 1.56538
                  CHANNELS 3 Zrotation Xrotation Yrotation
                  End Site
                  {
                    OFFSET 1.62519 -0.234802 1.16502
                  }
                }
              }
              JOINT lMid1
              {
                OFFSET 8.24714 1.18213 3.41376
                CHANNELS 3 Zrotation Xrotation Yrotation
                JOINT lMid2
                {
                  OFFSET 3.10165 -0.590103 1.0647
                  CHANNELS 3 Zrotation Xrotation Yrotation
                  End Site
                  {
                    OFFSET 2.48547 -0.328903 0.83742
                  }
                }
              }
              JOINT lRing1
              {
                OFFSET 8.82822 0.546677 1.51678
                CHANNELS 3 Zrotation Xrotation Yrotation
                JOINT lRing2
                {
                  OFFSET 2.60934 -0.819778 -0.0198488
                  CHANNELS 3 Zrotation Xrotation Yrotation
                  End Site
                  {
                    OFFSET 2.33842 -0.294052 0.168128
                  }
                }
              }
              JOINT lPinky1
              {
                OFFSET 8.27202 -0.0477905 -0.4584
                CHANNELS 3 Zrotation Xrotation Yrotation
                JOINT lPinky2
                {
                  OFFSET 1.82734 -0.647385 -0.700984
                  CHANNELS 3 Zrotation Xrotation Yrotation
                  End Site
                  {
                    OFFSET 1.69225 -0.51767 -0.607171
                  }
                }
              }
            }
          }
        }
      }
    }
  }
  JOINT rButtock
  {
    OFFSET -8.77824 4.35084 1.2192
    CHANNELS 3 Zrotation Xrotation Yrotation
    JOINT rThigh
    {
      OFFSET 0 -1.70687 -2.19456
      CHANNELS 3 Zrotation Xrotation Yrotation
      JOINT rShin
      {
        OFFSET 0 -36.8199 0.73152
        CHANNELS 3 Zrotation Xrotation Yrotation
        JOINT rFoot
        {
          OFFSET 0.73152 -45.1104 -5.12064
          CHANNELS 3 Zrotation Xrotation Yrotation
          End Site
          {
            OFFSET -1.1221 -3.69964 12.103
          }
        }
      }
    }
  }
  JOINT lButtock
  {
    OFFSET 8.77824 4.35084 1.2192
    CHANNELS 3 Zrotation Xrotation Yrotation
    JOINT lThigh
    {
      OFFSET 0 -1.70687 -2.19456
      CHANNELS 3 Zrotation Xrotation Yrotation
      JOINT lShin
      {
        OFFSET 0 -36.8199 0.73152
        CHANNELS 3 Zrotation Xrotation Yrotation
        JOINT lFoot
        {
          OFFSET -0.73152 -45.1104 -5.12064
          CHANNELS 3 Zrotation Xrotation Yrotation
          End Site
          {
            OFFSET 1.1221 -3.69964 12.103
          }
        }
      }
    }
  }
}
MOTION
Frames:	4
Frame Time:	0.00833333
45.4449 78.24980000000001 28.383599999999998 175.358735 -63.702171 -160.571628 3.944411 -12.822448 -180.0 2.318672 -6.669937 -163.940977 -2.68587 30.824646 -129.820361 33.602253 14.863342 147.982623 -0.00222 0.0 -0.001846 -0.002617 -0.0 0.003676 -59.832768 -86.721234 -81.633593 103.866884 22.521454 -113.010722 175.557644 9.193743 35.667805 170.570648 -15.12628 144.212801 0.567748 -0.561427 -0.085665 -37.364048 26.369845 33.177872 -45.475327 39.421029 35.669964 88.54023 -62.94764 40.71172 -22.286989 41.333687 17.258154 -167.192608 -17.3406 144.171491 -145.107045 3.681215 179.714395 11.283881 58.808688 -1.637407 -26.565137 -38.860339 -25.606704 -139.71276 -7.63593 -137.653441 33.833479 -85.665992 55.250792 83.461502 -31.724156 117.79209 -11.677179 12.4455 83.497276 154.370675 24.82959 -132.93704 -82.305287 -50.136564 -32.954625 57.562944 31.493073 -19.416366 145.337464 -6.263743 -118.679797 178.452443 -43.162952 -114.993749 151.475281 17.841344 -137.53842 -3.295988 0.055667 -0.346974 0.000874 -0.018427 0.006351 -9.235969 12.719429 -1.664701 25.539843 -38.086673 24.599352 142.210325 -1.37093 139.805296 0.0 0.000488 -0.001996 8.8935 -15.49065 2.56466 4.607376 36.087743 -60.230178 -162.754857 -17.249109 -10.056855 -0.001241 0.000199 -0.000621 5.660571 -53.526396 -180.0 14.40729 -46.379791 -139.068877 -105.450373 -5.563302 -0.074048
45.9203 78.0146 28.134500000000003 175.14709 -64.93409 -159.875024 4.235551 -8.181535 0.778834 -2.366197 2.020199 16.661556 -0.409003 32.259387 -145.117294 31.975716 22.195212 159.676079 0.000772 -0.0 -0.001147 0.000357 0.0 0.000473 -9.65202 34.836035 11.199858 -80.903403 2.446672 159.474818 -167.426688 -0.840993 -73.238938 -5.194169 18.098455 0.427969 -169.148419 -6.830751 89.915811 -27.910366 -32.724132 5.290081 -154.184774 -22.427925 121.925341 77.60558 -68.283336 25.921707 23.902505 -61.334073 1.397806 -2.168045 14.267163 2.655152 -0.02177 -1.725264 -0.541756 -149.845905 38.863556 164.841176 -141.578151 1.570212 -138.572508 -25.516288 -40.281201 -27.043852 -2.530078 -18.881193 3.794096 -69.749626 18.487103 -7.873002 6.688357 10.725493 -52.408673 9.062843 -39.856872 9.333559 4.166241 4.057514 -0.783977 75.626329 23.948632 -70.175228 108.427402 34.160657 -91.742777 172.940313 -26.170274 -115.434722 151.476805 17.841202 -137.537248 163.955165 -7.058284 -143.206189 0.022934 -1.725992 0.5428 156.418348 -37.891406 -176.361348 -7.649511 23.805795 -6.775221 126.320378 -32.629722 124.306141 -0.000221 -0.000877 -0.00011 8.04722 -16.281732 26.761072 35.503693 35.338297 147.833006 -144.531941 46.664555 -122.430492 0.004084 0.000298 0.002042 5.168059 -52.655656 -180.0 33.826881 -48.109615 113.628797 18.359725 18.986256 100.206304
46.1211 77.8338 27.7783 175.205703 -65.432147 -159.985838 2.605721 -12.082082 127.879642 5.132567 -3.162657 -109.054937 -6.8967 22.72127 -74.006921 25.410209 -11.356339 98.808919 -0.001061 0.0 -0.000219 -0.001061 0.0 -0.000219 -0.165318 0.979135 0.219337 -84.584063 -14.437732 -166.812321 178.06768 3.19152 -74.541187 -11.406301 34.40447 2.42792 57.543827 -43.951532 16.645497 -6.465057 -53.865375 -36.592874 -140.683965 1.506095 116.183917 -11.114356 32.631363 1.296315 -167.375013 -28.008156 145.271052 22.25783 -49.897258 2.20959 -0.014698 -1.322938 -0.417272 3.258022 45.215061 8.97833 -6.259316 -14.052206 -5.884701 -146.723492 10.573662 -143.397288 82.87756 68.299674 -86.000616 86.021033 19.619363 -74.200899 -0.489191 -2.214856 86.621607 158.114076 15.988198 -137.378189 93.744228 37.964125 -53.548187 -56.731264 -43.097584 -27.436389 151.353261 -17.157783 -121.134515 8.13269 31.959444 -0.218412 36.035252 51.723417 -29.831986 2.000002 14.756542 -2.751187 0.014916 -1.323287 0.414992 49.656422 77.900715 -63.019643 146.206537 15.40554 142.731294 -2.193367 -0.118553 2.023513 -0.0 0.001348 0.00077 7.489976 -18.827282 139.622332 30.315679 -44.928336 57.55705 149.060892 -22.744995 -142.951555 -179.997634 75.750937 -0.001619 -177.120735 24.424546 164.836238 27.023703 -48.846682 -74.863275 -1.519047 -40.072008 -70.582144
46.111200000000004 77.6953 27.372400000000003 175.567906 -65.533002 -160.756828 3.74595 -8.428007 24.0707 -0.54331 2.985535 -3.831002 -6.770575 22.996021 -74.832833 25.993625 -11.079203 98.991269 -0.004774 -0.0 0.003425 0.00133 0.0 0.002016 -157.797078 -22.115418 165.467499 158.055843 -80.055459 -138.629341 -115.115916 7.045451 -25.682255 35.766812 -59.775091 23.672787 -78.031852 38.689184 42.411715 -87.008934 -3.541394 66.59895 -90.227256 41.07215 75.795797 -13.456204 27.749377 3.691714 -11.03234 25.891681 7.686171 -17.876912 42.279118 14.433076 -75.673701 -72.114801 -92.82936 -58.54508 -82.20416 -84.454956 12.987942 44.344309 10.762565 -25.143268 -41.074067 -25.181594 -3.343156 -27.666926 5.408061 -68.815022 10.982978 5.00537 -124.240831 -23.003971 -63.195102 104.318121 54.643278 -84.187648 85.829479 38.630528 -47.955386 -17.335958 -24.649697 -22.084574 155.193885 -24.299617 -122.143475 46.993678 55.253775 -33.05879 153.320102 13.628881 -138.862505 128.883361 51.84252 -118.095529 145.11965 0.185351 179.186982 153.641383 -16.733111 176.838008 80.937903 -51.226971 79.360191 154.6699 39.453413 147.500892 -0.000277 -0.0006 0.000357 8.369666 -19.676283 -156.396686 -32.018202 -42.08523 25.446179 54.418264 48.387124 49.052757 -0.000448 -0.0006 0.000224 2.708041 -47.408554 38.872982 33.51378 44.963737 49.028337 -32.355531 32.79666 -74.75052
